<mxfile host="app.diagrams.net" modified="2020-03-15T17:24:27.366Z" agent="Mozilla/5.0 (Macintosh; Intel Mac OS X 10_14_0) AppleWebKit/537.36 (KHTML, like Gecko) Chrome/80.0.3987.132 Safari/537.36" etag="ROTcZX09gAnlyZwUCTOU" version="12.8.5" type="github">
  <diagram id="GbwHnD-b7ZU8oAO2V3ko" name="Page-1">
    <mxGraphModel dx="1960" dy="907" grid="1" gridSize="10" guides="1" tooltips="1" connect="1" arrows="1" fold="1" page="1" pageScale="1" pageWidth="850" pageHeight="1100" math="0" shadow="0">
      <root>
        <mxCell id="0" />
        <mxCell id="1" parent="0" />
        <mxCell id="EAP7nbtq2uLV0nLtH29_-1" value="" style="shape=mxgraph.cisco.switches.workgroup_switch;html=1;pointerEvents=1;dashed=0;fillColor=#036897;strokeColor=#ffffff;strokeWidth=2;verticalLabelPosition=bottom;verticalAlign=top;align=center;outlineConnect=0;" parent="1" vertex="1">
          <mxGeometry x="20" y="350" width="91" height="40" as="geometry" />
        </mxCell>
        <mxCell id="EAP7nbtq2uLV0nLtH29_-2" value="" style="fontColor=#0066CC;verticalAlign=top;verticalLabelPosition=bottom;labelPosition=center;align=center;html=1;outlineConnect=0;fillColor=#CCCCCC;strokeColor=#6881B3;gradientColor=none;gradientDirection=north;strokeWidth=2;shape=mxgraph.networks.pc;" parent="1" vertex="1">
          <mxGeometry x="30" y="290" width="40" height="20" as="geometry" />
        </mxCell>
        <mxCell id="EAP7nbtq2uLV0nLtH29_-3" value="" style="fontColor=#0066CC;verticalAlign=top;verticalLabelPosition=bottom;labelPosition=center;align=center;html=1;outlineConnect=0;fillColor=#CCCCCC;strokeColor=#6881B3;gradientColor=none;gradientDirection=north;strokeWidth=2;shape=mxgraph.networks.pc;" parent="1" vertex="1">
          <mxGeometry x="80" y="290" width="40" height="20" as="geometry" />
        </mxCell>
        <mxCell id="M5She6nAlUnKsvVRVkDN-1" value="" style="endArrow=none;html=1;" edge="1" parent="1">
          <mxGeometry width="50" height="50" relative="1" as="geometry">
            <mxPoint x="99.76" y="350" as="sourcePoint" />
            <mxPoint x="99.76" y="310" as="targetPoint" />
          </mxGeometry>
        </mxCell>
        <mxCell id="M5She6nAlUnKsvVRVkDN-2" value="" style="endArrow=none;html=1;" edge="1" parent="1">
          <mxGeometry width="50" height="50" relative="1" as="geometry">
            <mxPoint x="50" y="350" as="sourcePoint" />
            <mxPoint x="50" y="310" as="targetPoint" />
          </mxGeometry>
        </mxCell>
        <mxCell id="M5She6nAlUnKsvVRVkDN-3" value="VLAN2" style="text;html=1;resizable=0;autosize=1;align=center;verticalAlign=middle;points=[];fillColor=none;strokeColor=none;rounded=0;" vertex="1" parent="1">
          <mxGeometry x="25" y="270" width="50" height="20" as="geometry" />
        </mxCell>
        <mxCell id="M5She6nAlUnKsvVRVkDN-4" value="VLAN3" style="text;html=1;resizable=0;autosize=1;align=center;verticalAlign=middle;points=[];fillColor=none;strokeColor=none;rounded=0;" vertex="1" parent="1">
          <mxGeometry x="75" y="270" width="50" height="20" as="geometry" />
        </mxCell>
        <mxCell id="M5She6nAlUnKsvVRVkDN-5" value="" style="shape=mxgraph.cisco.switches.workgroup_switch;html=1;pointerEvents=1;dashed=0;fillColor=#036897;strokeColor=#ffffff;strokeWidth=2;verticalLabelPosition=bottom;verticalAlign=top;align=center;outlineConnect=0;" vertex="1" parent="1">
          <mxGeometry x="125" y="350" width="91" height="40" as="geometry" />
        </mxCell>
        <mxCell id="M5She6nAlUnKsvVRVkDN-6" value="" style="fontColor=#0066CC;verticalAlign=top;verticalLabelPosition=bottom;labelPosition=center;align=center;html=1;outlineConnect=0;fillColor=#CCCCCC;strokeColor=#6881B3;gradientColor=none;gradientDirection=north;strokeWidth=2;shape=mxgraph.networks.pc;" vertex="1" parent="1">
          <mxGeometry x="135" y="290" width="40" height="20" as="geometry" />
        </mxCell>
        <mxCell id="M5She6nAlUnKsvVRVkDN-7" value="" style="fontColor=#0066CC;verticalAlign=top;verticalLabelPosition=bottom;labelPosition=center;align=center;html=1;outlineConnect=0;fillColor=#CCCCCC;strokeColor=#6881B3;gradientColor=none;gradientDirection=north;strokeWidth=2;shape=mxgraph.networks.pc;" vertex="1" parent="1">
          <mxGeometry x="185" y="290" width="40" height="20" as="geometry" />
        </mxCell>
        <mxCell id="M5She6nAlUnKsvVRVkDN-8" value="" style="endArrow=none;html=1;" edge="1" parent="1">
          <mxGeometry width="50" height="50" relative="1" as="geometry">
            <mxPoint x="204.76" y="350" as="sourcePoint" />
            <mxPoint x="204.76" y="310" as="targetPoint" />
          </mxGeometry>
        </mxCell>
        <mxCell id="M5She6nAlUnKsvVRVkDN-9" value="" style="endArrow=none;html=1;" edge="1" parent="1">
          <mxGeometry width="50" height="50" relative="1" as="geometry">
            <mxPoint x="155" y="350" as="sourcePoint" />
            <mxPoint x="155" y="310" as="targetPoint" />
          </mxGeometry>
        </mxCell>
        <mxCell id="M5She6nAlUnKsvVRVkDN-10" value="VLAN4" style="text;html=1;resizable=0;autosize=1;align=center;verticalAlign=middle;points=[];fillColor=none;strokeColor=none;rounded=0;" vertex="1" parent="1">
          <mxGeometry x="130" y="270" width="50" height="20" as="geometry" />
        </mxCell>
        <mxCell id="M5She6nAlUnKsvVRVkDN-11" value="VLAN2" style="text;html=1;resizable=0;autosize=1;align=center;verticalAlign=middle;points=[];fillColor=none;strokeColor=none;rounded=0;" vertex="1" parent="1">
          <mxGeometry x="180" y="270" width="50" height="20" as="geometry" />
        </mxCell>
        <mxCell id="M5She6nAlUnKsvVRVkDN-12" value="" style="shape=mxgraph.cisco.switches.workgroup_switch;html=1;pointerEvents=1;dashed=0;fillColor=#036897;strokeColor=#ffffff;strokeWidth=2;verticalLabelPosition=bottom;verticalAlign=top;align=center;outlineConnect=0;" vertex="1" parent="1">
          <mxGeometry x="225" y="350" width="91" height="40" as="geometry" />
        </mxCell>
        <mxCell id="M5She6nAlUnKsvVRVkDN-13" value="" style="fontColor=#0066CC;verticalAlign=top;verticalLabelPosition=bottom;labelPosition=center;align=center;html=1;outlineConnect=0;fillColor=#CCCCCC;strokeColor=#6881B3;gradientColor=none;gradientDirection=north;strokeWidth=2;shape=mxgraph.networks.pc;" vertex="1" parent="1">
          <mxGeometry x="235" y="290" width="40" height="20" as="geometry" />
        </mxCell>
        <mxCell id="M5She6nAlUnKsvVRVkDN-14" value="" style="fontColor=#0066CC;verticalAlign=top;verticalLabelPosition=bottom;labelPosition=center;align=center;html=1;outlineConnect=0;fillColor=#CCCCCC;strokeColor=#6881B3;gradientColor=none;gradientDirection=north;strokeWidth=2;shape=mxgraph.networks.pc;" vertex="1" parent="1">
          <mxGeometry x="285" y="290" width="40" height="20" as="geometry" />
        </mxCell>
        <mxCell id="M5She6nAlUnKsvVRVkDN-15" value="" style="endArrow=none;html=1;" edge="1" parent="1">
          <mxGeometry width="50" height="50" relative="1" as="geometry">
            <mxPoint x="304.76" y="350" as="sourcePoint" />
            <mxPoint x="304.76" y="310" as="targetPoint" />
          </mxGeometry>
        </mxCell>
        <mxCell id="M5She6nAlUnKsvVRVkDN-16" value="" style="endArrow=none;html=1;" edge="1" parent="1">
          <mxGeometry width="50" height="50" relative="1" as="geometry">
            <mxPoint x="255" y="350" as="sourcePoint" />
            <mxPoint x="255" y="310" as="targetPoint" />
          </mxGeometry>
        </mxCell>
        <mxCell id="M5She6nAlUnKsvVRVkDN-17" value="VLAN7" style="text;html=1;resizable=0;autosize=1;align=center;verticalAlign=middle;points=[];fillColor=none;strokeColor=none;rounded=0;" vertex="1" parent="1">
          <mxGeometry x="230" y="270" width="50" height="20" as="geometry" />
        </mxCell>
        <mxCell id="M5She6nAlUnKsvVRVkDN-18" value="VLAN3" style="text;html=1;resizable=0;autosize=1;align=center;verticalAlign=middle;points=[];fillColor=none;strokeColor=none;rounded=0;" vertex="1" parent="1">
          <mxGeometry x="280" y="270" width="50" height="20" as="geometry" />
        </mxCell>
        <mxCell id="M5She6nAlUnKsvVRVkDN-19" value="" style="shape=mxgraph.cisco.switches.workgroup_switch;html=1;pointerEvents=1;dashed=0;fillColor=#036897;strokeColor=#ffffff;strokeWidth=2;verticalLabelPosition=bottom;verticalAlign=top;align=center;outlineConnect=0;" vertex="1" parent="1">
          <mxGeometry x="330" y="350" width="91" height="40" as="geometry" />
        </mxCell>
        <mxCell id="M5She6nAlUnKsvVRVkDN-20" value="" style="fontColor=#0066CC;verticalAlign=top;verticalLabelPosition=bottom;labelPosition=center;align=center;html=1;outlineConnect=0;fillColor=#CCCCCC;strokeColor=#6881B3;gradientColor=none;gradientDirection=north;strokeWidth=2;shape=mxgraph.networks.pc;" vertex="1" parent="1">
          <mxGeometry x="340" y="290" width="40" height="20" as="geometry" />
        </mxCell>
        <mxCell id="M5She6nAlUnKsvVRVkDN-21" value="" style="fontColor=#0066CC;verticalAlign=top;verticalLabelPosition=bottom;labelPosition=center;align=center;html=1;outlineConnect=0;fillColor=#CCCCCC;strokeColor=#6881B3;gradientColor=none;gradientDirection=north;strokeWidth=2;shape=mxgraph.networks.pc;" vertex="1" parent="1">
          <mxGeometry x="390" y="290" width="40" height="20" as="geometry" />
        </mxCell>
        <mxCell id="M5She6nAlUnKsvVRVkDN-22" value="" style="endArrow=none;html=1;" edge="1" parent="1">
          <mxGeometry width="50" height="50" relative="1" as="geometry">
            <mxPoint x="409.76" y="350" as="sourcePoint" />
            <mxPoint x="409.76" y="310" as="targetPoint" />
          </mxGeometry>
        </mxCell>
        <mxCell id="M5She6nAlUnKsvVRVkDN-23" value="" style="endArrow=none;html=1;" edge="1" parent="1">
          <mxGeometry width="50" height="50" relative="1" as="geometry">
            <mxPoint x="360" y="350" as="sourcePoint" />
            <mxPoint x="360" y="310" as="targetPoint" />
          </mxGeometry>
        </mxCell>
        <mxCell id="M5She6nAlUnKsvVRVkDN-24" value="VLAN3" style="text;html=1;resizable=0;autosize=1;align=center;verticalAlign=middle;points=[];fillColor=none;strokeColor=none;rounded=0;" vertex="1" parent="1">
          <mxGeometry x="335" y="270" width="50" height="20" as="geometry" />
        </mxCell>
        <mxCell id="M5She6nAlUnKsvVRVkDN-25" value="VLAN6" style="text;html=1;resizable=0;autosize=1;align=center;verticalAlign=middle;points=[];fillColor=none;strokeColor=none;rounded=0;" vertex="1" parent="1">
          <mxGeometry x="385" y="270" width="50" height="20" as="geometry" />
        </mxCell>
        <mxCell id="M5She6nAlUnKsvVRVkDN-26" value="" style="shape=mxgraph.cisco.switches.workgroup_switch;html=1;pointerEvents=1;dashed=0;fillColor=#036897;strokeColor=#ffffff;strokeWidth=2;verticalLabelPosition=bottom;verticalAlign=top;align=center;outlineConnect=0;" vertex="1" parent="1">
          <mxGeometry x="435" y="350" width="91" height="40" as="geometry" />
        </mxCell>
        <mxCell id="M5She6nAlUnKsvVRVkDN-27" value="" style="fontColor=#0066CC;verticalAlign=top;verticalLabelPosition=bottom;labelPosition=center;align=center;html=1;outlineConnect=0;fillColor=#CCCCCC;strokeColor=#6881B3;gradientColor=none;gradientDirection=north;strokeWidth=2;shape=mxgraph.networks.pc;" vertex="1" parent="1">
          <mxGeometry x="445" y="290" width="40" height="20" as="geometry" />
        </mxCell>
        <mxCell id="M5She6nAlUnKsvVRVkDN-28" value="" style="fontColor=#0066CC;verticalAlign=top;verticalLabelPosition=bottom;labelPosition=center;align=center;html=1;outlineConnect=0;fillColor=#CCCCCC;strokeColor=#6881B3;gradientColor=none;gradientDirection=north;strokeWidth=2;shape=mxgraph.networks.pc;" vertex="1" parent="1">
          <mxGeometry x="495" y="290" width="40" height="20" as="geometry" />
        </mxCell>
        <mxCell id="M5She6nAlUnKsvVRVkDN-29" value="" style="endArrow=none;html=1;" edge="1" parent="1">
          <mxGeometry width="50" height="50" relative="1" as="geometry">
            <mxPoint x="514.7600000000001" y="350" as="sourcePoint" />
            <mxPoint x="514.7600000000001" y="310" as="targetPoint" />
          </mxGeometry>
        </mxCell>
        <mxCell id="M5She6nAlUnKsvVRVkDN-30" value="" style="endArrow=none;html=1;" edge="1" parent="1">
          <mxGeometry width="50" height="50" relative="1" as="geometry">
            <mxPoint x="465" y="350" as="sourcePoint" />
            <mxPoint x="465" y="310" as="targetPoint" />
          </mxGeometry>
        </mxCell>
        <mxCell id="M5She6nAlUnKsvVRVkDN-31" value="VLAN5" style="text;html=1;resizable=0;autosize=1;align=center;verticalAlign=middle;points=[];fillColor=none;strokeColor=none;rounded=0;" vertex="1" parent="1">
          <mxGeometry x="440" y="270" width="50" height="20" as="geometry" />
        </mxCell>
        <mxCell id="M5She6nAlUnKsvVRVkDN-32" value="VLAN5" style="text;html=1;resizable=0;autosize=1;align=center;verticalAlign=middle;points=[];fillColor=none;strokeColor=none;rounded=0;" vertex="1" parent="1">
          <mxGeometry x="490" y="270" width="50" height="20" as="geometry" />
        </mxCell>
        <mxCell id="M5She6nAlUnKsvVRVkDN-33" value="" style="shape=mxgraph.cisco.switches.workgroup_switch;html=1;pointerEvents=1;dashed=0;fillColor=#036897;strokeColor=#ffffff;strokeWidth=2;verticalLabelPosition=bottom;verticalAlign=top;align=center;outlineConnect=0;" vertex="1" parent="1">
          <mxGeometry x="535" y="350" width="91" height="40" as="geometry" />
        </mxCell>
        <mxCell id="M5She6nAlUnKsvVRVkDN-34" value="" style="fontColor=#0066CC;verticalAlign=top;verticalLabelPosition=bottom;labelPosition=center;align=center;html=1;outlineConnect=0;fillColor=#CCCCCC;strokeColor=#6881B3;gradientColor=none;gradientDirection=north;strokeWidth=2;shape=mxgraph.networks.pc;" vertex="1" parent="1">
          <mxGeometry x="545" y="290" width="40" height="20" as="geometry" />
        </mxCell>
        <mxCell id="M5She6nAlUnKsvVRVkDN-35" value="" style="fontColor=#0066CC;verticalAlign=top;verticalLabelPosition=bottom;labelPosition=center;align=center;html=1;outlineConnect=0;fillColor=#CCCCCC;strokeColor=#6881B3;gradientColor=none;gradientDirection=north;strokeWidth=2;shape=mxgraph.networks.pc;" vertex="1" parent="1">
          <mxGeometry x="595" y="290" width="40" height="20" as="geometry" />
        </mxCell>
        <mxCell id="M5She6nAlUnKsvVRVkDN-36" value="" style="endArrow=none;html=1;" edge="1" parent="1">
          <mxGeometry width="50" height="50" relative="1" as="geometry">
            <mxPoint x="614.76" y="350" as="sourcePoint" />
            <mxPoint x="614.76" y="310" as="targetPoint" />
          </mxGeometry>
        </mxCell>
        <mxCell id="M5She6nAlUnKsvVRVkDN-37" value="" style="endArrow=none;html=1;" edge="1" parent="1">
          <mxGeometry width="50" height="50" relative="1" as="geometry">
            <mxPoint x="565" y="350" as="sourcePoint" />
            <mxPoint x="565" y="310" as="targetPoint" />
          </mxGeometry>
        </mxCell>
        <mxCell id="M5She6nAlUnKsvVRVkDN-38" value="VLAN6" style="text;html=1;resizable=0;autosize=1;align=center;verticalAlign=middle;points=[];fillColor=none;strokeColor=none;rounded=0;" vertex="1" parent="1">
          <mxGeometry x="540" y="270" width="50" height="20" as="geometry" />
        </mxCell>
        <mxCell id="M5She6nAlUnKsvVRVkDN-39" value="VLAN4" style="text;html=1;resizable=0;autosize=1;align=center;verticalAlign=middle;points=[];fillColor=none;strokeColor=none;rounded=0;" vertex="1" parent="1">
          <mxGeometry x="590" y="270" width="50" height="20" as="geometry" />
        </mxCell>
        <mxCell id="M5She6nAlUnKsvVRVkDN-40" value="" style="shape=mxgraph.cisco.switches.workgroup_switch;html=1;pointerEvents=1;dashed=0;fillColor=#036897;strokeColor=#ffffff;strokeWidth=2;verticalLabelPosition=bottom;verticalAlign=top;align=center;outlineConnect=0;" vertex="1" parent="1">
          <mxGeometry x="270" y="550" width="91" height="40" as="geometry" />
        </mxCell>
        <mxCell id="M5She6nAlUnKsvVRVkDN-41" value="" style="shape=mxgraph.cisco.routers.router;html=1;pointerEvents=1;dashed=0;fillColor=#036897;strokeColor=#ffffff;strokeWidth=2;verticalLabelPosition=bottom;verticalAlign=top;align=center;outlineConnect=0;" vertex="1" parent="1">
          <mxGeometry x="481" y="550" width="68" height="43" as="geometry" />
        </mxCell>
        <mxCell id="M5She6nAlUnKsvVRVkDN-42" value="" style="endArrow=none;html=1;entryX=0.574;entryY=1.039;entryDx=0;entryDy=0;entryPerimeter=0;exitX=0.98;exitY=0.5;exitDx=0;exitDy=0;exitPerimeter=0;" edge="1" parent="1" source="M5She6nAlUnKsvVRVkDN-40" target="M5She6nAlUnKsvVRVkDN-33">
          <mxGeometry width="50" height="50" relative="1" as="geometry">
            <mxPoint x="370" y="560" as="sourcePoint" />
            <mxPoint x="411" y="500" as="targetPoint" />
          </mxGeometry>
        </mxCell>
        <mxCell id="M5She6nAlUnKsvVRVkDN-43" value="" style="endArrow=none;html=1;entryX=0;entryY=0.98;entryDx=0;entryDy=0;entryPerimeter=0;" edge="1" parent="1">
          <mxGeometry width="50" height="50" relative="1" as="geometry">
            <mxPoint x="350" y="550" as="sourcePoint" />
            <mxPoint x="499" y="389.00000000000006" as="targetPoint" />
          </mxGeometry>
        </mxCell>
        <mxCell id="M5She6nAlUnKsvVRVkDN-44" value="" style="endArrow=none;html=1;entryX=0;entryY=0.98;entryDx=0;entryDy=0;entryPerimeter=0;exitX=0.708;exitY=-0.033;exitDx=0;exitDy=0;exitPerimeter=0;" edge="1" parent="1" source="M5She6nAlUnKsvVRVkDN-40">
          <mxGeometry width="50" height="50" relative="1" as="geometry">
            <mxPoint x="218" y="550.8" as="sourcePoint" />
            <mxPoint x="392" y="390.00000000000006" as="targetPoint" />
          </mxGeometry>
        </mxCell>
        <mxCell id="M5She6nAlUnKsvVRVkDN-45" value="" style="endArrow=none;html=1;entryX=0;entryY=0.98;entryDx=0;entryDy=0;entryPerimeter=0;" edge="1" parent="1">
          <mxGeometry width="50" height="50" relative="1" as="geometry">
            <mxPoint x="320" y="550" as="sourcePoint" />
            <mxPoint x="270" y="389.00000000000006" as="targetPoint" />
          </mxGeometry>
        </mxCell>
        <mxCell id="M5She6nAlUnKsvVRVkDN-48" value="" style="endArrow=none;html=1;entryX=0;entryY=0.98;entryDx=0;entryDy=0;entryPerimeter=0;" edge="1" parent="1" source="M5She6nAlUnKsvVRVkDN-40">
          <mxGeometry width="50" height="50" relative="1" as="geometry">
            <mxPoint x="250" y="541" as="sourcePoint" />
            <mxPoint x="200" y="380" as="targetPoint" />
          </mxGeometry>
        </mxCell>
        <mxCell id="M5She6nAlUnKsvVRVkDN-49" value="" style="endArrow=none;html=1;entryX=0;entryY=0.98;entryDx=0;entryDy=0;entryPerimeter=0;exitX=0;exitY=0.5;exitDx=0;exitDy=0;exitPerimeter=0;" edge="1" parent="1" source="M5She6nAlUnKsvVRVkDN-40">
          <mxGeometry width="50" height="50" relative="1" as="geometry">
            <mxPoint x="140" y="541" as="sourcePoint" />
            <mxPoint x="90" y="380" as="targetPoint" />
          </mxGeometry>
        </mxCell>
        <mxCell id="M5She6nAlUnKsvVRVkDN-51" value="" style="endArrow=none;html=1;" edge="1" parent="1">
          <mxGeometry width="50" height="50" relative="1" as="geometry">
            <mxPoint x="480" y="580" as="sourcePoint" />
            <mxPoint x="350" y="580" as="targetPoint" />
          </mxGeometry>
        </mxCell>
        <mxCell id="M5She6nAlUnKsvVRVkDN-53" value="" style="fontColor=#0066CC;verticalAlign=top;verticalLabelPosition=bottom;labelPosition=center;align=center;html=1;outlineConnect=0;fillColor=#CCCCCC;strokeColor=#6881B3;gradientColor=none;gradientDirection=north;strokeWidth=2;shape=mxgraph.networks.comm_link;direction=south;" vertex="1" parent="1">
          <mxGeometry x="549" y="560" width="135" height="30" as="geometry" />
        </mxCell>
        <mxCell id="M5She6nAlUnKsvVRVkDN-54" value="Provides inter-VLAN communication and WAN services" style="text;html=1;resizable=0;autosize=1;align=center;verticalAlign=middle;points=[];fillColor=none;strokeColor=none;rounded=0;" vertex="1" parent="1">
          <mxGeometry x="470" y="610" width="310" height="20" as="geometry" />
        </mxCell>
        <mxCell id="M5She6nAlUnKsvVRVkDN-57" value="&lt;table border=&quot;1&quot; width=&quot;100%&quot; style=&quot;width: 100% ; height: 100% ; border-collapse: collapse&quot;&gt;&lt;tbody&gt;&lt;tr&gt;&lt;td align=&quot;center&quot;&gt;Marketing&lt;/td&gt;&lt;td align=&quot;center&quot;&gt;VLAN2&lt;/td&gt;&lt;td align=&quot;center&quot;&gt;172.16.20.0/24&lt;/td&gt;&lt;/tr&gt;&lt;tr&gt;&lt;td align=&quot;center&quot;&gt;Shipping&lt;/td&gt;&lt;td align=&quot;center&quot;&gt;VLAN3&lt;/td&gt;&lt;td align=&quot;center&quot;&gt;172.16.30.0/24&lt;/td&gt;&lt;/tr&gt;&lt;tr&gt;&lt;td align=&quot;center&quot;&gt;Engineering&lt;/td&gt;&lt;td align=&quot;center&quot;&gt;VLAN4&lt;/td&gt;&lt;td align=&quot;center&quot;&gt;172.16.40.0/24&lt;/td&gt;&lt;/tr&gt;&lt;/tbody&gt;&lt;/table&gt;" style="text;html=1;strokeColor=none;fillColor=none;overflow=fill;" vertex="1" parent="1">
          <mxGeometry x="133" y="660" width="195" height="140" as="geometry" />
        </mxCell>
        <mxCell id="M5She6nAlUnKsvVRVkDN-58" value="&lt;table border=&quot;1&quot; width=&quot;100%&quot; style=&quot;width: 100% ; height: 100% ; border-collapse: collapse&quot;&gt;&lt;tbody&gt;&lt;tr&gt;&lt;td align=&quot;center&quot;&gt;Finance&amp;nbsp; &amp;nbsp;&lt;/td&gt;&lt;td align=&quot;center&quot;&gt;VLAN5&lt;/td&gt;&lt;td align=&quot;center&quot;&gt;172.16.50.0/24&lt;/td&gt;&lt;/tr&gt;&lt;tr&gt;&lt;td align=&quot;center&quot;&gt;Managment&lt;/td&gt;&lt;td align=&quot;center&quot;&gt;VLAN6&lt;/td&gt;&lt;td align=&quot;center&quot;&gt;172.16.60.0/24&lt;/td&gt;&lt;/tr&gt;&lt;tr&gt;&lt;td align=&quot;center&quot;&gt;Sales&lt;/td&gt;&lt;td align=&quot;center&quot;&gt;VLAN7&lt;/td&gt;&lt;td align=&quot;center&quot;&gt;172.16.60.0/24&lt;/td&gt;&lt;/tr&gt;&lt;/tbody&gt;&lt;/table&gt;" style="text;html=1;strokeColor=none;fillColor=none;overflow=fill;" vertex="1" parent="1">
          <mxGeometry x="133" y="800" width="195" height="140" as="geometry" />
        </mxCell>
      </root>
    </mxGraphModel>
  </diagram>
</mxfile>
